<mxfile host="app.diagrams.net" agent="Mozilla/5.0 (X11; Linux x86_64) AppleWebKit/537.36 (KHTML, like Gecko) Chrome/128.0.0.0 Safari/537.36" version="24.7.16">
  <diagram name="Page-1" id="Xfg189F9YVabZ9v8pzlm">
    <mxGraphModel dx="1259" dy="665" grid="1" gridSize="10" guides="1" tooltips="1" connect="1" arrows="1" fold="1" page="1" pageScale="1" pageWidth="1100" pageHeight="850" math="1" shadow="0">
      <root>
        <mxCell id="0" />
        <mxCell id="1" parent="0" />
        <mxCell id="PLRrKVkpATCHVitfvwZU-47" style="edgeStyle=orthogonalEdgeStyle;rounded=0;orthogonalLoop=1;jettySize=auto;html=1;exitX=1;exitY=0.5;exitDx=0;exitDy=0;exitPerimeter=0;entryX=0;entryY=0.5;entryDx=0;entryDy=0;" edge="1" parent="1" source="Y-Jjm8I5lgs0f4CpFR8o-1" target="PLRrKVkpATCHVitfvwZU-16">
          <mxGeometry relative="1" as="geometry" />
        </mxCell>
        <mxCell id="Y-Jjm8I5lgs0f4CpFR8o-1" value="&lt;font style=&quot;font-size: 16px;&quot; face=&quot;Times New Roman&quot;&gt;&lt;b&gt;GOES Soft X-ray&lt;/b&gt;&lt;/font&gt;" style="shape=cylinder3;whiteSpace=wrap;html=1;boundedLbl=1;backgroundOutline=1;size=15;fillColor=#dae8fc;strokeColor=#6c8ebf;" parent="1" vertex="1">
          <mxGeometry x="60" y="190" width="140" height="80" as="geometry" />
        </mxCell>
        <mxCell id="PLRrKVkpATCHVitfvwZU-10" value="" style="group" vertex="1" connectable="0" parent="1">
          <mxGeometry x="253" y="90" width="242" height="107" as="geometry" />
        </mxCell>
        <mxCell id="PLRrKVkpATCHVitfvwZU-8" value="" style="rounded=1;whiteSpace=wrap;html=1;fillColor=#dae8fc;strokeColor=#6c8ebf;" vertex="1" parent="PLRrKVkpATCHVitfvwZU-10">
          <mxGeometry width="242" height="107" as="geometry" />
        </mxCell>
        <mxCell id="PLRrKVkpATCHVitfvwZU-3" value="" style="shape=image;verticalLabelPosition=bottom;labelBackgroundColor=default;verticalAlign=top;aspect=fixed;imageAspect=0;image=data:image/svg+xml,PHN2ZyB4bWxucz0iaHR0cDovL3d3dy53My5vcmcvMjAwMC9zdmciIHZpZXdCb3g9IjAgMCAyNCAyNCIgaGVpZ2h0PSI4MDBweCIgd2lkdGg9IjgwMHB4Ij48cGF0aCBkPSJNMiAyMmgyMXYxSDFWMWgxem04LjYxMy0zLjE5M0wxNC42MSA1Ljc5M2wzLjg3IDguOTU2IDMuNzI2LTYuMzUtLjg2Mi0uNTA2LTIuNzI4IDQuNjQ5LTQuMTY1LTkuNjM3LTQuMDk3IDEzLjMzOC0zLjg3Ny03LjEwOEwyLjkgMTYuNTUybC45LjQzNSAyLjczMi01LjY2NHoiLz48cGF0aCBkPSJNMCAwaDI0djI0SDB6IiBmaWxsPSJub25lIi8+PC9zdmc+;imageBackground=#99CCFF;" vertex="1" parent="PLRrKVkpATCHVitfvwZU-10">
          <mxGeometry x="12" y="14" width="60" height="60" as="geometry" />
        </mxCell>
        <mxCell id="PLRrKVkpATCHVitfvwZU-4" value="" style="shape=image;verticalLabelPosition=bottom;labelBackgroundColor=default;verticalAlign=top;aspect=fixed;imageAspect=0;image=data:image/svg+xml,PHN2ZyB4bWxucz0iaHR0cDovL3d3dy53My5vcmcvMjAwMC9zdmciIHZpZXdCb3g9IjAgMCAyNCAyNCIgaGVpZ2h0PSI4MDBweCIgd2lkdGg9IjgwMHB4Ij48cGF0aCBkPSJNMiAyMmgyMXYxSDFWMWgxem04LjYxMy0zLjE5M0wxNC42MSA1Ljc5M2wzLjg3IDguOTU2IDMuNzI2LTYuMzUtLjg2Mi0uNTA2LTIuNzI4IDQuNjQ5LTQuMTY1LTkuNjM3LTQuMDk3IDEzLjMzOC0zLjg3Ny03LjEwOEwyLjkgMTYuNTUybC45LjQzNSAyLjczMi01LjY2NHoiLz48cGF0aCBkPSJNMCAwaDI0djI0SDB6IiBmaWxsPSJub25lIi8+PC9zdmc+;imageBackground=#99CCFF;fontStyle=1" vertex="1" parent="PLRrKVkpATCHVitfvwZU-10">
          <mxGeometry x="22" y="24" width="60" height="60" as="geometry" />
        </mxCell>
        <mxCell id="PLRrKVkpATCHVitfvwZU-6" value="" style="shape=image;verticalLabelPosition=bottom;labelBackgroundColor=default;verticalAlign=top;aspect=fixed;imageAspect=0;image=data:image/svg+xml,PHN2ZyB4bWxucz0iaHR0cDovL3d3dy53My5vcmcvMjAwMC9zdmciIHZpZXdCb3g9IjAgMCAyNCAyNCIgaGVpZ2h0PSI4MDBweCIgd2lkdGg9IjgwMHB4Ij48cGF0aCBkPSJNMiAyMmgyMXYxSDFWMWgxem04LjYxMy0zLjE5M0wxNC42MSA1Ljc5M2wzLjg3IDguOTU2IDMuNzI2LTYuMzUtLjg2Mi0uNTA2LTIuNzI4IDQuNjQ5LTQuMTY1LTkuNjM3LTQuMDk3IDEzLjMzOC0zLjg3Ny03LjEwOEwyLjkgMTYuNTUybC45LjQzNSAyLjczMi01LjY2NHoiLz48cGF0aCBkPSJNMCAwaDI0djI0SDB6IiBmaWxsPSJub25lIi8+PC9zdmc+;imageBackground=#99CCFF;" vertex="1" parent="PLRrKVkpATCHVitfvwZU-10">
          <mxGeometry x="32" y="34" width="60" height="60" as="geometry" />
        </mxCell>
        <mxCell id="PLRrKVkpATCHVitfvwZU-9" value="&lt;font style=&quot;font-size: 15px;&quot; face=&quot;Times New Roman&quot;&gt;Time Serie data&lt;/font&gt;&lt;div style=&quot;font-size: 15px;&quot;&gt;&lt;font style=&quot;font-size: 15px;&quot; face=&quot;-nFJiH7_hK1CqZ9M0P_9&quot;&gt;[ \(T_{FL Start}\) - 20min, \(T_{FL Start}\)&lt;span style=&quot;background-color: initial;&quot;&gt;&amp;nbsp;+ 25min ]&lt;/span&gt;&lt;/font&gt;&lt;/div&gt;" style="rounded=1;whiteSpace=wrap;html=1;strokeColor=none;fillColor=#dae8fc;" vertex="1" parent="PLRrKVkpATCHVitfvwZU-10">
          <mxGeometry x="102" y="24" width="130" height="60" as="geometry" />
        </mxCell>
        <mxCell id="PLRrKVkpATCHVitfvwZU-13" style="edgeStyle=orthogonalEdgeStyle;rounded=0;orthogonalLoop=1;jettySize=auto;html=1;exitX=0;exitY=0.5;exitDx=0;exitDy=0;entryX=1;entryY=0.5;entryDx=0;entryDy=0;entryPerimeter=0;endArrow=none;endFill=0;startArrow=classic;startFill=1;" edge="1" parent="1" source="PLRrKVkpATCHVitfvwZU-8" target="Y-Jjm8I5lgs0f4CpFR8o-1">
          <mxGeometry relative="1" as="geometry" />
        </mxCell>
        <mxCell id="PLRrKVkpATCHVitfvwZU-67" style="edgeStyle=orthogonalEdgeStyle;rounded=0;orthogonalLoop=1;jettySize=auto;html=1;exitX=1;exitY=0.5;exitDx=0;exitDy=0;entryX=0;entryY=0.5;entryDx=0;entryDy=0;" edge="1" parent="1" source="PLRrKVkpATCHVitfvwZU-54" target="PLRrKVkpATCHVitfvwZU-66">
          <mxGeometry relative="1" as="geometry" />
        </mxCell>
        <mxCell id="PLRrKVkpATCHVitfvwZU-54" value="&lt;b style=&quot;font-size: 15px;&quot;&gt;&lt;font style=&quot;font-size: 15px;&quot; face=&quot;Times New Roman&quot;&gt;Time Series&amp;nbsp;&lt;/font&gt;&lt;/b&gt;&lt;div style=&quot;font-size: 15px;&quot;&gt;&lt;b style=&quot;&quot;&gt;&lt;font style=&quot;font-size: 15px;&quot; face=&quot;Times New Roman&quot;&gt;Forest&lt;/font&gt;&lt;/b&gt;&lt;/div&gt;" style="rounded=1;whiteSpace=wrap;html=1;fillColor=#dae8fc;strokeColor=#6c8ebf;" vertex="1" parent="1">
          <mxGeometry x="530" y="90" width="130" height="107" as="geometry" />
        </mxCell>
        <mxCell id="PLRrKVkpATCHVitfvwZU-55" value="" style="group" vertex="1" connectable="0" parent="1">
          <mxGeometry x="253" y="250" width="242" height="107" as="geometry" />
        </mxCell>
        <mxCell id="PLRrKVkpATCHVitfvwZU-16" value="" style="rounded=1;whiteSpace=wrap;html=1;fillColor=#dae8fc;strokeColor=#6c8ebf;" vertex="1" parent="PLRrKVkpATCHVitfvwZU-55">
          <mxGeometry width="242" height="107" as="geometry" />
        </mxCell>
        <mxCell id="PLRrKVkpATCHVitfvwZU-20" value="&lt;font style=&quot;font-size: 15px;&quot; face=&quot;Times New Roman&quot;&gt;Tabular data&lt;/font&gt;&lt;div style=&quot;font-size: 15px;&quot;&gt;&lt;font style=&quot;font-size: 15px;&quot; face=&quot;Times New Roman&quot;&gt;Flare Features;&amp;nbsp;&lt;/font&gt;&lt;/div&gt;&lt;div style=&quot;font-size: 15px;&quot;&gt;&lt;span style=&quot;background-color: initial;&quot;&gt;&lt;font style=&quot;font-size: 15px;&quot; face=&quot;Times New Roman&quot;&gt;[ Max intensity, florescence, etc]&lt;/font&gt;&lt;/span&gt;&lt;/div&gt;" style="rounded=1;whiteSpace=wrap;html=1;strokeColor=none;fillColor=#dae8fc;" vertex="1" parent="PLRrKVkpATCHVitfvwZU-55">
          <mxGeometry x="108" y="24" width="130" height="60" as="geometry" />
        </mxCell>
        <mxCell id="PLRrKVkpATCHVitfvwZU-34" value="" style="shape=table;startSize=0;container=1;collapsible=0;childLayout=tableLayout;" vertex="1" parent="PLRrKVkpATCHVitfvwZU-55">
          <mxGeometry x="19" y="24" width="90" height="61" as="geometry" />
        </mxCell>
        <mxCell id="PLRrKVkpATCHVitfvwZU-35" value="" style="shape=tableRow;horizontal=0;startSize=0;swimlaneHead=0;swimlaneBody=0;strokeColor=inherit;top=0;left=0;bottom=0;right=0;collapsible=0;dropTarget=0;fillColor=none;points=[[0,0.5],[1,0.5]];portConstraint=eastwest;swimlaneLine=0;shadow=0;movable=1;resizable=1;rotatable=1;deletable=1;editable=1;locked=0;connectable=1;" vertex="1" parent="PLRrKVkpATCHVitfvwZU-34">
          <mxGeometry width="90" height="20" as="geometry" />
        </mxCell>
        <mxCell id="PLRrKVkpATCHVitfvwZU-36" value="" style="shape=partialRectangle;html=1;whiteSpace=wrap;connectable=0;strokeColor=#666666;overflow=hidden;fillColor=#1A1A1A;top=0;left=0;bottom=0;right=0;pointerEvents=1;fontColor=#333333;" vertex="1" parent="PLRrKVkpATCHVitfvwZU-35">
          <mxGeometry width="30" height="20" as="geometry">
            <mxRectangle width="30" height="20" as="alternateBounds" />
          </mxGeometry>
        </mxCell>
        <mxCell id="PLRrKVkpATCHVitfvwZU-37" value="" style="shape=partialRectangle;html=1;whiteSpace=wrap;connectable=0;strokeColor=inherit;overflow=hidden;fillColor=#1A1A1A;top=0;left=0;bottom=0;right=0;pointerEvents=1;" vertex="1" parent="PLRrKVkpATCHVitfvwZU-35">
          <mxGeometry x="30" width="30" height="20" as="geometry">
            <mxRectangle width="30" height="20" as="alternateBounds" />
          </mxGeometry>
        </mxCell>
        <mxCell id="PLRrKVkpATCHVitfvwZU-38" value="" style="shape=partialRectangle;html=1;whiteSpace=wrap;connectable=0;strokeColor=inherit;overflow=hidden;fillColor=#1A1A1A;top=0;left=0;bottom=0;right=0;pointerEvents=1;" vertex="1" parent="PLRrKVkpATCHVitfvwZU-35">
          <mxGeometry x="60" width="30" height="20" as="geometry">
            <mxRectangle width="30" height="20" as="alternateBounds" />
          </mxGeometry>
        </mxCell>
        <mxCell id="PLRrKVkpATCHVitfvwZU-39" value="" style="shape=tableRow;horizontal=0;startSize=0;swimlaneHead=0;swimlaneBody=0;strokeColor=inherit;top=0;left=0;bottom=0;right=0;collapsible=0;dropTarget=0;fillColor=none;points=[[0,0.5],[1,0.5]];portConstraint=eastwest;" vertex="1" parent="PLRrKVkpATCHVitfvwZU-34">
          <mxGeometry y="20" width="90" height="20" as="geometry" />
        </mxCell>
        <mxCell id="PLRrKVkpATCHVitfvwZU-40" value="" style="shape=partialRectangle;html=1;whiteSpace=wrap;connectable=0;strokeColor=inherit;overflow=hidden;fillColor=none;top=0;left=0;bottom=0;right=0;pointerEvents=1;" vertex="1" parent="PLRrKVkpATCHVitfvwZU-39">
          <mxGeometry width="30" height="20" as="geometry">
            <mxRectangle width="30" height="20" as="alternateBounds" />
          </mxGeometry>
        </mxCell>
        <mxCell id="PLRrKVkpATCHVitfvwZU-41" value="" style="shape=partialRectangle;html=1;whiteSpace=wrap;connectable=0;strokeColor=inherit;overflow=hidden;fillColor=none;top=0;left=0;bottom=0;right=0;pointerEvents=1;" vertex="1" parent="PLRrKVkpATCHVitfvwZU-39">
          <mxGeometry x="30" width="30" height="20" as="geometry">
            <mxRectangle width="30" height="20" as="alternateBounds" />
          </mxGeometry>
        </mxCell>
        <mxCell id="PLRrKVkpATCHVitfvwZU-42" value="" style="shape=partialRectangle;html=1;whiteSpace=wrap;connectable=0;strokeColor=inherit;overflow=hidden;fillColor=none;top=0;left=0;bottom=0;right=0;pointerEvents=1;" vertex="1" parent="PLRrKVkpATCHVitfvwZU-39">
          <mxGeometry x="60" width="30" height="20" as="geometry">
            <mxRectangle width="30" height="20" as="alternateBounds" />
          </mxGeometry>
        </mxCell>
        <mxCell id="PLRrKVkpATCHVitfvwZU-43" value="" style="shape=tableRow;horizontal=0;startSize=0;swimlaneHead=0;swimlaneBody=0;strokeColor=inherit;top=0;left=0;bottom=0;right=0;collapsible=0;dropTarget=0;fillColor=none;points=[[0,0.5],[1,0.5]];portConstraint=eastwest;" vertex="1" parent="PLRrKVkpATCHVitfvwZU-34">
          <mxGeometry y="40" width="90" height="21" as="geometry" />
        </mxCell>
        <mxCell id="PLRrKVkpATCHVitfvwZU-44" value="" style="shape=partialRectangle;html=1;whiteSpace=wrap;connectable=0;strokeColor=inherit;overflow=hidden;fillColor=none;top=0;left=0;bottom=0;right=0;pointerEvents=1;" vertex="1" parent="PLRrKVkpATCHVitfvwZU-43">
          <mxGeometry width="30" height="21" as="geometry">
            <mxRectangle width="30" height="21" as="alternateBounds" />
          </mxGeometry>
        </mxCell>
        <mxCell id="PLRrKVkpATCHVitfvwZU-45" value="" style="shape=partialRectangle;html=1;whiteSpace=wrap;connectable=0;strokeColor=inherit;overflow=hidden;fillColor=none;top=0;left=0;bottom=0;right=0;pointerEvents=1;" vertex="1" parent="PLRrKVkpATCHVitfvwZU-43">
          <mxGeometry x="30" width="30" height="21" as="geometry">
            <mxRectangle width="30" height="21" as="alternateBounds" />
          </mxGeometry>
        </mxCell>
        <mxCell id="PLRrKVkpATCHVitfvwZU-46" value="" style="shape=partialRectangle;html=1;whiteSpace=wrap;connectable=0;strokeColor=inherit;overflow=hidden;fillColor=none;top=0;left=0;bottom=0;right=0;pointerEvents=1;" vertex="1" parent="PLRrKVkpATCHVitfvwZU-43">
          <mxGeometry x="60" width="30" height="21" as="geometry">
            <mxRectangle width="30" height="21" as="alternateBounds" />
          </mxGeometry>
        </mxCell>
        <mxCell id="PLRrKVkpATCHVitfvwZU-60" style="edgeStyle=orthogonalEdgeStyle;rounded=0;orthogonalLoop=1;jettySize=auto;html=1;exitX=1;exitY=0.5;exitDx=0;exitDy=0;entryX=0;entryY=0.5;entryDx=0;entryDy=0;" edge="1" parent="1" source="PLRrKVkpATCHVitfvwZU-8" target="PLRrKVkpATCHVitfvwZU-54">
          <mxGeometry relative="1" as="geometry" />
        </mxCell>
        <mxCell id="PLRrKVkpATCHVitfvwZU-68" style="edgeStyle=orthogonalEdgeStyle;rounded=0;orthogonalLoop=1;jettySize=auto;html=1;exitX=1;exitY=0.5;exitDx=0;exitDy=0;entryX=0;entryY=0.5;entryDx=0;entryDy=0;" edge="1" parent="1" source="PLRrKVkpATCHVitfvwZU-61" target="PLRrKVkpATCHVitfvwZU-66">
          <mxGeometry relative="1" as="geometry">
            <mxPoint x="680" y="270" as="targetPoint" />
          </mxGeometry>
        </mxCell>
        <mxCell id="PLRrKVkpATCHVitfvwZU-61" value="&lt;b style=&quot;font-size: 15px;&quot;&gt;&lt;font style=&quot;font-size: 15px;&quot; face=&quot;Times New Roman&quot;&gt;Logistic&amp;nbsp;&lt;/font&gt;&lt;/b&gt;&lt;div style=&quot;font-size: 15px;&quot;&gt;&lt;b style=&quot;&quot;&gt;&lt;font style=&quot;font-size: 15px;&quot; face=&quot;Times New Roman&quot;&gt;Regression&lt;/font&gt;&lt;/b&gt;&lt;/div&gt;" style="rounded=1;whiteSpace=wrap;html=1;fillColor=#dae8fc;strokeColor=#6c8ebf;" vertex="1" parent="1">
          <mxGeometry x="530" y="250" width="130" height="107" as="geometry" />
        </mxCell>
        <mxCell id="PLRrKVkpATCHVitfvwZU-64" style="edgeStyle=orthogonalEdgeStyle;rounded=0;orthogonalLoop=1;jettySize=auto;html=1;exitX=1;exitY=0.5;exitDx=0;exitDy=0;entryX=0;entryY=0.5;entryDx=0;entryDy=0;" edge="1" parent="1" source="PLRrKVkpATCHVitfvwZU-16" target="PLRrKVkpATCHVitfvwZU-61">
          <mxGeometry relative="1" as="geometry" />
        </mxCell>
        <mxCell id="PLRrKVkpATCHVitfvwZU-65" value="&lt;b&gt;&lt;font face=&quot;Times New Roman&quot; style=&quot;font-size: 17px;&quot;&gt;5folds&amp;nbsp;&lt;/font&gt;&lt;/b&gt;&lt;div&gt;&lt;b&gt;&lt;font face=&quot;Times New Roman&quot; style=&quot;font-size: 17px;&quot;&gt;Cross-validation&lt;/font&gt;&lt;/b&gt;&lt;/div&gt;" style="text;html=1;align=center;verticalAlign=middle;whiteSpace=wrap;rounded=0;" vertex="1" parent="1">
          <mxGeometry x="522.5" y="45" width="145" height="30" as="geometry" />
        </mxCell>
        <mxCell id="PLRrKVkpATCHVitfvwZU-66" value="&lt;font face=&quot;Times New Roman&quot;&gt;&lt;span style=&quot;font-size: 15px;&quot;&gt;&lt;b&gt;Ensemble&lt;/b&gt;&lt;/span&gt;&lt;/font&gt;&lt;div&gt;&lt;font face=&quot;Times New Roman&quot;&gt;&lt;span style=&quot;font-size: 15px;&quot;&gt;&lt;b&gt;Model&lt;/b&gt;&lt;/span&gt;&lt;/font&gt;&lt;/div&gt;" style="rounded=1;whiteSpace=wrap;html=1;fillColor=#dae8fc;strokeColor=#6c8ebf;" vertex="1" parent="1">
          <mxGeometry x="710" y="176.5" width="130" height="107" as="geometry" />
        </mxCell>
      </root>
    </mxGraphModel>
  </diagram>
</mxfile>
